<svg width="40" height="40" viewBox="0 0 40 40" fill="none" xmlns="http://www.w3.org/2000/svg">
<rect width="40" height="40" rx="4" fill="#DBE4F1"/>
<path d="M24.83 23.0332C25.5 22.6666 26.38 23.0666 26.38 23.7332V24.8082C26.38 25.8666 25.39 26.9999 24.2 27.3332L21.01 28.2166C20.45 28.3749 19.54 28.3749 18.99 28.2166L15.8 27.3332C14.6 26.9999 13.62 25.8666 13.62 24.8082V23.7249C13.62 23.0666 14.5 22.6666 15.16 23.0249L17.22 24.1416C18.01 24.5832 19.01 24.7999 20.01 24.7999C21.01 24.7999 22.01 24.5832 22.8 24.1416L24.83 23.0332Z" fill="#9CB5D8"/>
<path d="M27.98 15.3833L21.99 12.1083C20.91 11.5166 19.13 11.5166 18.05 12.1083L12.03 15.3833C10.1 16.425 10.1 18.7833 12.03 19.8333L13.63 20.7L18.05 23.1C19.13 23.6916 20.91 23.6916 21.99 23.1L26.38 20.7L27.75 19.95V22.5C27.75 22.8416 28.09 23.125 28.5 23.125C28.91 23.125 29.25 22.8416 29.25 22.5V18.4C29.65 17.325 29.24 16.075 27.98 15.3833Z" fill="#9CB5D8"/>
</svg>
