<svg width="40" height="40" viewBox="0 0 40 40" fill="none" xmlns="http://www.w3.org/2000/svg">
<rect width="40" height="40" rx="4" fill="#FEF7EC"/>
<path d="M15.5 20C15.5 19.3369 15.6479 18.7071 15.9107 18.1372C16.1143 17.6959 16.0792 17.1592 15.7356 16.8156L13.1586 14.2386C12.7485 13.8285 12.0724 13.85 11.7414 14.3262C10.6209 15.9382 9.96997 17.894 9.96997 20C9.96997 22.1044 10.6199 24.0587 11.7327 25.67C12.0627 26.1478 12.7399 26.1709 13.151 25.7608L15.7341 23.1843C16.0785 22.8408 16.1139 22.3035 15.9103 21.8618C15.6477 21.2921 15.5 20.6627 15.5 20Z" fill="#F8D190"/>
<path d="M20 15.5C20.6631 15.5 21.2928 15.6479 21.8628 15.9108C22.304 16.1143 22.8407 16.0793 23.1843 15.7357L25.7335 13.1864C26.1428 12.7772 26.1223 12.1026 25.6476 11.7714C24.0415 10.651 22.0844 10 19.97 10C17.8658 10 15.9187 10.6499 14.3097 11.7625C13.8321 12.0928 13.809 12.7699 14.2191 13.1811L16.7802 15.7487C17.1261 16.0955 17.668 16.1287 18.1116 15.9211C18.6854 15.6524 19.3237 15.5 20 15.5Z" fill="#F8D190"/>
<path d="M27.8901 13.9061C27.7124 13.6765 27.3751 13.6645 27.1695 13.8696L23.9507 17.0801C23.7773 17.253 23.7574 17.5247 23.8813 17.736C24.2717 18.4014 24.5 19.1722 24.5 20C24.5 20.828 24.2716 21.5989 23.881 22.2645C23.7572 22.4755 23.7769 22.7469 23.9499 22.9199L27.1695 26.1395C27.375 26.3449 27.7127 26.3332 27.8905 26.1033C29.1957 24.415 29.97 22.2968 29.97 20C29.97 17.703 29.1956 15.5932 27.8901 13.9061Z" fill="#F8D190"/>
<path d="M20 24.4999C19.1719 24.4999 18.401 24.2715 17.7355 23.8809C17.5244 23.7571 17.2531 23.7768 17.0801 23.9498L13.8305 27.1994C13.625 27.4049 13.6367 27.7426 13.8667 27.9204C15.555 29.2256 17.6731 29.9999 19.97 29.9999C22.2771 29.9999 24.3969 29.2249 26.0778 27.9107C26.3057 27.7324 26.3164 27.3963 26.1117 27.1917L22.8871 23.9671C22.7153 23.7953 22.4463 23.7745 22.2358 23.8959C21.5727 24.2785 20.8113 24.4999 20 24.4999Z" fill="#F8D190"/>
</svg>
