<svg width="40" height="40" viewBox="0 0 40 40" fill="none" xmlns="http://www.w3.org/2000/svg">
<rect width="40" height="40" rx="4" fill="#FEF7EC"/>
<path d="M29.09 14.98C28.24 14.04 26.82 13.57 24.76 13.57H24.52V13.53C24.52 11.85 24.52 9.77002 20.76 9.77002H19.24C15.48 9.77002 15.48 11.86 15.48 13.53V13.58H15.24C13.17 13.58 11.76 14.05 10.91 14.99C9.92004 16.09 9.95004 17.57 10.05 18.58L10.06 18.65L10.1375 19.4633C10.1518 19.6131 10.2324 19.7484 10.3583 19.8307C10.5981 19.9877 10.9995 20.2464 11.24 20.38C11.38 20.47 11.53 20.55 11.68 20.63C13.39 21.57 15.27 22.2 17.18 22.51C17.27 23.45 17.68 24.55 19.87 24.55C22.06 24.55 22.49 23.46 22.56 22.49C24.6 22.16 26.57 21.45 28.35 20.41C28.41 20.38 28.45 20.35 28.5 20.32C28.8968 20.0958 29.3083 19.8195 29.6835 19.5489C29.7965 19.4673 29.8688 19.3413 29.8842 19.2028L29.9 19.06L29.95 18.59C29.96 18.53 29.96 18.48 29.97 18.41C30.05 17.4 30.03 16.02 29.09 14.98ZM21.09 21.83C21.09 22.89 21.09 23.05 19.86 23.05C18.63 23.05 18.63 22.86 18.63 21.84V20.58H21.09V21.83ZM16.91 13.57V13.53C16.91 11.83 16.91 11.2 19.24 11.2H20.76C23.09 11.2 23.09 11.84 23.09 13.53V13.58H16.91V13.57Z" fill="#F9D190"/>
<path d="M28.8734 21.7341C29.227 21.5659 29.6343 21.8462 29.5989 22.2361L29.24 26.19C29.03 28.19 28.21 30.23 23.81 30.23H16.19C11.79 30.23 10.97 28.19 10.76 26.2L10.4193 22.4521C10.3842 22.0667 10.7822 21.7867 11.1348 21.9463C12.2742 22.4618 14.3774 23.3764 15.6765 23.7166C15.8408 23.7597 15.9737 23.8773 16.0457 24.0311C16.6527 25.3292 17.9691 26.02 19.87 26.02C21.7521 26.02 23.0851 25.3026 23.6941 24.0013C23.7662 23.8474 23.8992 23.7298 24.0636 23.6865C25.4431 23.3235 27.6817 22.3012 28.8734 21.7341Z" fill="#F9D190"/>
</svg>
