<svg width="40" height="40" viewBox="0 0 40 40" fill="none" xmlns="http://www.w3.org/2000/svg">
<rect width="40" height="40" rx="4" fill="#E8F6E8"/>
<path d="M29.25 26.4701L27.6 26.8601C27.23 26.9501 26.94 27.2301 26.86 27.6001L26.51 29.0701C26.32 29.8701 25.3 30.1201 24.77 29.4901L21.78 26.0501C21.54 25.7701 21.67 25.3301 22.03 25.2401C23.8 24.8101 25.39 23.8201 26.56 22.4101C26.75 22.1801 27.09 22.1501 27.3 22.3601L29.52 24.5801C30.28 25.3401 30.01 26.2901 29.25 26.4701Z" fill="#A7DDA7"/>
<path d="M10.7 26.4701L12.35 26.8601C12.72 26.9501 13.01 27.2301 13.09 27.6001L13.44 29.0701C13.63 29.8701 14.65 30.1201 15.18 29.4901L18.17 26.0501C18.41 25.7701 18.28 25.3301 17.92 25.2401C16.15 24.8101 14.56 23.8201 13.39 22.4101C13.2 22.1801 12.86 22.1501 12.65 22.3601L10.43 24.5801C9.67004 25.3401 9.94004 26.2901 10.7 26.4701Z" fill="#A7DDA7"/>
<path d="M20 10C16.13 10 13 13.13 13 17C13 18.45 13.43 19.78 14.17 20.89C15.25 22.49 16.96 23.62 18.95 23.91C19.29 23.97 19.64 24 20 24C20.36 24 20.71 23.97 21.05 23.91C23.04 23.62 24.75 22.49 25.83 20.89C26.57 19.78 27 18.45 27 17C27 13.13 23.87 10 20 10ZM23.06 16.78L22.23 17.61C22.09 17.75 22.01 18.02 22.06 18.22L22.3 19.25C22.49 20.06 22.06 20.38 21.34 19.95L20.34 19.36C20.16 19.25 19.86 19.25 19.68 19.36L18.68 19.95C17.96 20.37 17.53 20.06 17.72 19.25L17.96 18.22C18 18.03 17.93 17.75 17.79 17.61L16.94 16.78C16.45 16.29 16.61 15.8 17.29 15.69L18.36 15.51C18.54 15.48 18.75 15.32 18.83 15.16L19.42 13.98C19.74 13.34 20.26 13.34 20.58 13.98L21.17 15.16C21.25 15.32 21.46 15.48 21.65 15.51L22.72 15.69C23.39 15.8 23.55 16.29 23.06 16.78Z" fill="#A7DDA7"/>
</svg>
